<svg width="15" height="16" viewBox="0 0 15 16" fill="none" xmlns="http://www.w3.org/2000/svg">
<path d="M7.01 8.00011C7.31555 8.00011 7.57713 7.89131 7.79472 7.67372C8.01231 7.45613 8.12111 7.19455 8.12111 6.889C8.12111 6.58344 8.01231 6.32187 7.79472 6.10427C7.57713 5.88668 7.31555 5.77789 7.01 5.77789C6.70444 5.77789 6.44287 5.88668 6.22527 6.10427C6.00768 6.32187 5.89889 6.58344 5.89889 6.889C5.89889 7.19455 6.00768 7.45613 6.22527 7.67372C6.44287 7.89131 6.70444 8.00011 7.01 8.00011ZM7.01 12.0834C8.13963 11.0464 8.97759 10.1043 9.52389 9.25705C10.0702 8.40983 10.3433 7.65752 10.3433 7.00011C10.3433 5.99085 10.0216 5.16446 9.37805 4.52094C8.73453 3.87742 7.94518 3.55566 7.01 3.55566C6.07481 3.55566 5.28546 3.87742 4.64194 4.52094C3.99842 5.16446 3.67666 5.99085 3.67666 7.00011C3.67666 7.65752 3.94981 8.40983 4.49611 9.25705C5.0424 10.1043 5.88037 11.0464 7.01 12.0834ZM7.01 13.5557C5.51926 12.2871 4.40583 11.1089 3.66972 10.0209C2.93361 8.93298 2.56555 7.92603 2.56555 7.00011C2.56555 5.61122 3.01231 4.50474 3.90583 3.68066C4.79935 2.85659 5.83407 2.44455 7.01 2.44455C8.18592 2.44455 9.22064 2.85659 10.1142 3.68066C11.0077 4.50474 11.4544 5.61122 11.4544 7.00011C11.4544 7.92603 11.0864 8.93298 10.3503 10.0209C9.61416 11.1089 8.50074 12.2871 7.01 13.5557Z" fill="#64748B"/>
</svg>
